<?xml version="1.0" encoding="utf-8"?>
<!-- Generator: Adobe Illustrator 22.0.1, SVG Export Plug-In . SVG Version: 6.00 Build 0)  -->
<svg version="1.1" id="Layer_1" xmlns="http://www.w3.org/2000/svg" xmlns:xlink="http://www.w3.org/1999/xlink" x="0px" y="0px"
	 viewBox="0 0 2800 1800" style="enable-background:new 0 0 2800 1800;" xml:space="preserve">
<style type="text/css">
	.st0{fill:#282F39;}
</style>
<g>
	<path class="st0" d="M1184.2,1278.3c8.7-8.1,13.9-17.4,14.7-27.6c1.6-20.9-15.2-41.5-47.3-57.9c-7.5-3.8-15.6-7.3-24.3-10.5
		c23.4-16.4,36.1-36.1,32.6-55c-3-16-16.9-28.8-39.4-36.5c1.5-3.7,2.3-7.5,2.3-11.4c0,0,0,0,0,0c0.5-32.8-50.7-59.3-116.5-60.3
		c-30.5-0.4-59.3,4.7-81.2,14.5c-23.6,10.6-36.8,25.6-37.1,42.3c-0.3,16.7,12.5,32.1,35.8,43.4c2.5,1.2,5,2.3,7.6,3.4
		c-22.1,16.4-32.5,35-29.3,52.6c0.3,1.9,0.9,3.7,1.5,5.4c-24.8,11.1-39.1,26.5-40.4,44.1c-1.3,16.3,8.7,32.3,28.3,46.4
		c-31.4,14.8-50.4,34.8-50.4,57.1c0,23.4,20.6,44.9,58,60.4c35.3,14.7,82.1,22.8,131.8,22.8c0.1,0,0.2,0,0.2,0
		c49.7,0,96.6-8.2,132-22.9c37.4-15.6,57.9-37.1,57.9-60.5C1221.1,1309.3,1207.4,1292.1,1184.2,1278.3z M1157.6,1375.4
		c-33.7,14-78.6,21.8-126.5,21.8c-0.1,0-0.2,0-0.2,0c-47.8,0-92.6-7.7-126.3-21.7c-31.2-13-49.1-30.2-49.1-47.2
		c0-17.1,18.5-34.7,50.7-47.9c1.4,0.8,2.9,1.6,4.4,2.3c30.2,15.4,71,25.7,114.8,29.1c10.3,0.8,20.4,1.2,30.2,1.2
		c48.8,0,90.5-9.5,116.1-25.4c22.4,12,35,26.5,35,40.5C1206.7,1345.2,1188.8,1362.4,1157.6,1375.4z M877.6,1226.1
		c0.9-12.3,13-23.9,33.5-32.8c8.3,9.4,21.7,16.7,39.5,21.3c13.5,3.5,28.8,5.2,45.1,5.2c15.1,0,31.1-1.5,47.2-4.5
		c26.1-4.9,49.5-13,68.4-23.1c12.3,3.9,23.7,8.4,33.7,13.5c26.2,13.4,40.6,29.4,39.5,44c-2.2,28.9-66.3,55-158.1,47.9
		c-42-3.2-80.8-13-109.4-27.6C890.9,1256.7,876.5,1240.6,877.6,1226.1z M916.3,1172.8c-2.3-12.1,7-26.6,25.3-39.7
		c2.2-1.6,4.5-3.1,6.8-4.5c16.9,4.8,36.1,7.5,56.1,7.8c1.3,0,2.5,0,3.8,0c46.9,0,86.2-13.2,104.1-33c19.2,5.8,31.3,15.4,33.4,26.6
		c4.5,24-36.8,58.3-105.5,71.1c-31.5,5.9-62.1,5.7-86.1-0.5C932.3,1195.1,918.5,1184.9,916.3,1172.8z M931,1046.8
		c19.2-8.6,44.5-13.3,71.6-13.3c1.2,0,2.4,0,3.5,0c60.7,0.9,102.7,24.9,102.3,45.8c-0.3,20.9-43,43.7-103.7,42.7
		c-28.4-0.4-54.9-5.9-74.7-15.5c-17.8-8.6-27.8-19.6-27.7-30.3C902.5,1065.6,913,1054.9,931,1046.8z"/>
</g>
<path class="st0" d="M1316.7,779.5c-0.7-3.9-4.4-6.5-8.3-5.9c-0.8,0.1-83.4,14.2-130.6,25.6c-13.5,3.2-18,4.6-30.9,11.2
	c-7.6-10.7-21.7-26-38.5-22.2c-21.4,4.9-58.9,44.3-58.9,62c0,2.8,0.5,5.7,1.3,8.7c-9.7,3.2-14.5,3-16.8,2.1c-1.1-0.4-2.2-1-3.5-1.9
	c-0.4-0.3-0.8-0.6-1.2-0.9c-0.1-0.1-0.3-0.1-0.4-0.2c-16.6-12.3-45.1-54.3-63.6-84.9c9.2-0.6,18.6-1.4,27.1-2.4
	c27.4-3.1,30.2-16.6,30.4-20.6c0.5-9.5-7.7-17.5-20.9-20.4c-19.1-4.3-59.4-9.3-68.6-10.4c-6.1-4.4-30.8-22.5-49.8-42.2
	c-0.2-0.2-0.4-0.5-0.6-0.7c-8.4-8.8-15.7-17.8-19.6-26c-17.7-36.7-27.4-72.4-22.7-83.1c0.7-1.5,1.4-1.7,1.8-1.9
	c8.8-2.6,19.1,11.7,30,26.7c5.9,8.2,12.1,16.7,19,24.1c21.6,22.8,141.5,68.2,155.1,73.3c0.5,0.2,1.1,0.3,1.7,0.4
	c1.4,0.2,34.6,3.8,106.8-6.8c72.5-10.6,145.2-48.4,148.2-50c3.5-1.8,4.9-6.2,3-9.7c-1.8-3.5-6.2-4.9-9.7-3
	c-0.7,0.4-73.6,38.2-143.6,48.5c-64,9.4-96.8,7.2-102.2,6.8C1014,662,918.2,623.5,902,606.4c-6.3-6.6-12.1-14.7-17.8-22.6
	c-14-19.3-27.1-37.6-45.7-32.1c-4.9,1.4-8.7,4.8-10.9,9.8c-10.5,23.6,17.2,83.4,22.9,95.1c1.8,3.8,4.3,7.8,7.1,11.7
	c-44.2-7.3-103.5,5.6-106.5,6.3c-3.9,0.9-6.3,4.7-5.5,8.6c0.9,3.9,4.7,6.3,8.6,5.5c0.8-0.2,81.2-17.6,119.9-1
	c22.5,23.2,51,43.2,52.7,44.4c1,0.7,2.1,1.1,3.3,1.2c0.5,0.1,48.5,5.9,69,10.4c7,1.6,9.7,4.7,9.7,5.7c-0.1,1.4-4.4,5.6-17.7,7.2
	c-30.4,3.4-72.2,4.6-72.7,4.6c-4,0.1-7.1,3.4-7,7.4c0.1,3.9,3.3,7,7.2,7c0.1,0,0.1,0,0.2,0c0.2,0,13.6-0.4,30.7-1.3
	c8.5,14.3,45.1,74.9,70.7,94.9c0.3,0.3,0.6,0.6,0.9,0.8c9.9,7.2,19.4,16.3,21.8,20.8c-1.4,0.5-3.8,1-7.7,0.8
	c-6.2-0.3-28.4-3.6-53.2-32.1l-2.8-3.3c-34.6-39.7-77.7-89.2-119.7-100c-41.6-10.7-104.3-8.5-107-8.4c-4,0.1-7,3.5-6.9,7.4
	c0.1,4,3.5,7,7.4,6.9c0.6,0,63.3-2.2,102.9,8c37.7,9.7,80.9,59.3,112.5,95.5l2.9,3.3c23.9,27.4,49.2,37.1,65.8,37.1c0.7,0,1.3,0,2,0
	c7.7-0.4,13.7-3,16.8-7.3c4.9-6.9,0.5-15.6-7.2-24c2.6-0.6,5.4-1.4,8.4-2.5c5.3,8.8,12.9,16,19.6,17.1c0.3,0.1,0.7,0.1,1,0.1
	c13.5,0,64.6-31.9,73.2-38.2c5.1-3.8,7.8-6.3,8.3-9.9c1.1-7.3-1.9-14.4-4.2-18.6c11.1-5.6,14.9-6.6,26.6-9.4
	c46.7-11.2,128.8-25.3,129.6-25.4C1314.8,787.1,1317.4,783.4,1316.7,779.5z M1078.1,874.9c-4.1-1.8-14.2-14.6-14.2-24.6
	c0-9,31-44.2,47.8-48.1c0.7-0.2,1.4-0.2,2.1-0.2c10.8,0,22.8,17.8,26.4,24.4c0.1,0.3,0.3,0.5,0.5,0.8c1.1,1.5,3.8,6.3,4.1,10.3
	C1135.9,845.1,1088.2,872.8,1078.1,874.9z"/>
<g>
	<path class="st0" d="M437,879.2h181c19.6,0,35.5-15.9,35.5-35.5V574.3c0-37.1-28.7-67.6-65-70.6v-42.8c0-4-3.2-7.2-7.2-7.2H560
		v-43.5c0-4-3.2-7.2-7.2-7.2h-18.2v-21.5h78.9l20.9,20.2c1.4,1.4,3.2,2,5,2c1.9,0,3.7-0.7,5.2-2.2c2.8-2.8,2.7-7.4-0.2-10.1
		l-23-22.2c-1.3-1.3-3.1-2-5-2H482.3c-4,0-7.2,3.2-7.2,7.2c0,4,3.2,7.2,7.2,7.2h38V403h-18.2c-4,0-7.2,3.2-7.2,7.2v43.5h-21.3
		c-4,0-7.2,3.2-7.2,7.2v42.8c-36.3,3-65,33.5-65,70.6v55.8v139.1v74.4C401.5,863.2,417.4,879.2,437,879.2z M509.4,417.3h36.3v36.3
		h-36.3V417.3z M480.8,468h21.3h50.7h21.3v35.4h-93.4V468z M472.4,517.7h1.3h107.7h1.3c31.2,0,56.6,25.4,56.6,56.6v269.4
		c0,11.7-9.5,21.2-21.2,21.2H437c-11.7,0-21.2-9.5-21.2-21.2v-67.3h159c4,0,7.2-3.2,7.2-7.2V630.1c0-4-3.2-7.2-7.2-7.2h-159v-48.6
		C415.8,543.1,441.2,517.7,472.4,517.7z M415.8,637.2h151.9V762H415.8V637.2z"/>
	<path class="st0" d="M428.7,1184.5l3.6,3.6c1.4,1.4,3.2,2.1,5.1,2.1c1.8,0,3.7-0.7,5.1-2.1L570.6,1060l0,0c1.3,1.3,3.2,2.1,5.1,2.1
		c1.9,0,3.7-0.8,5.1-2.1l20.3-20.3c2.8-2.8,2.8-7.3,0-10.1l-26.9-26.9c-2.7-2.7-7.5-2.7-10.1,0l-20.3,20.3c-2.6,2.6-2.8,6.5-0.6,9.4
		l-128.2,128.2c-1.3,1.3-2.1,3.2-2.1,5.1c0,1.9,0.8,3.7,2.1,5.1l3.6,3.6l-91.4,91.4c-2.8,2.8-2.8,7.3,0,10.1
		c1.4,1.4,3.2,2.1,5.1,2.1c1.8,0,3.7-0.7,5.1-2.1L428.7,1184.5z M569.1,1018l16.7,16.7l-10.1,10.1l-16.7-16.7L569.1,1018z
		 M553.2,1042.6l7.3,7.3L437.4,1173l-7.3-7.3L553.2,1042.6z"/>
	<path class="st0" d="M727.9,1156.5l-26.9-26.9c-2.7-2.7-7.5-2.7-10.1,0l-20.3,20.3c-2.6,2.6-2.8,6.5-0.6,9.4l-128.2,128.2
		c-1.3,1.3-2.1,3.2-2.1,5.1c0,1.9,0.8,3.7,2.1,5.1l3.6,3.6l-116.6,116.6c-2.8,2.8-2.8,7.3,0,10.1c1.4,1.4,3.2,2.1,5.1,2.1
		c1.8,0,3.7-0.7,5.1-2.1l116.6-116.6l3.6,3.6c1.3,1.3,3.2,2.1,5.1,2.1c1.9,0,3.7-0.8,5.1-2.1l128.2-128.2l0,0
		c1.3,1.3,3.2,2.1,5.1,2.1c1.9,0,3.7-0.8,5.1-2.1l20.3-20.3C730.7,1163.8,730.7,1159.3,727.9,1156.5z M564.3,1299.9l-7.3-7.3
		l123.1-123.1l7.3,7.3L564.3,1299.9z M702.6,1171.7L702.6,1171.7C702.6,1171.7,702.6,1171.7,702.6,1171.7l-8.5-8.5l-8.2-8.2
		l10.1-10.1l16.7,16.7L702.6,1171.7z"/>
	<path class="st0" d="M497,1252.9c1.3,1.3,3.2,2.1,5.1,2.1c1.9,0,3.7-0.8,5.1-2.1l128.2-128.2l0,0c1.3,1.3,3.2,2.1,5.1,2.1
		c1.9,0,3.7-0.8,5.1-2.1l20.3-20.3c2.8-2.8,2.8-7.3,0-10.1l-26.9-26.9c-2.7-2.7-7.5-2.7-10.1,0l-20.3,20.3c-2.6,2.6-2.8,6.5-0.6,9.4
		l-128.2,128.2c-1.3,1.3-2.1,3.2-2.1,5.1s0.8,3.7,2.1,5.1l3.6,3.6l-144.6,144.6c-2.8,2.8-2.8,7.3,0,10.1c1.4,1.4,3.2,2.1,5.1,2.1
		c1.8,0,3.7-0.7,5.1-2.1l144.6-144.6L497,1252.9z M633.8,1082.6l16.7,16.7l-10.1,10.1l0,0c0,0,0,0,0,0l-8.5-8.5l-8.2-8.2
		L633.8,1082.6z M617.9,1107.3l7.3,7.3l-123.1,123.1l-7.3-7.3L617.9,1107.3z"/>
</g>
<g>
	<path class="st0" d="M1905.1,634.1l-66.8,45.7c-4.9-7.2-13.2-12-22.6-12h-76.9c-19.2,0-38.9-9.1-48.9-14.5
		c-8.1-4.4-17.3-6.7-26.7-6.7h-32.7c-29.2,0-57.6,8.2-82.4,23.6l-89.7,56.1l-4.9-7.8c-2-3.1-6-4.3-9.3-2.6l-37.2,19
		c-1.8,0.9-3.1,2.5-3.6,4.4c-0.5,1.9-0.3,3.9,0.7,5.6l68.5,115.5c1.3,2.2,3.7,3.5,6.2,3.5c1.1,0,2.2-0.3,3.3-0.8l40.2-20.8
		c1.8-0.9,3.1-2.5,3.6-4.5c0.5-1.9,0.2-4-0.8-5.7l-5.3-8.4l25.6-17.1c14.4-9.6,31.2-14.7,48.6-14.7h87c43.4,0,85.7-8.6,125.7-25.4
		l38.1-16.1c0.7-0.3,1.4-0.7,2-1.3l87.4-78.2c4.9-4.4,7.8-10.7,7.9-17.3s-2.7-13-7.5-17.5C1926.3,628.7,1914.3,627.8,1905.1,634.1z
		 M1481.4,847.5l-61.2-103.1l24.6-12.6l63.9,101.6L1481.4,847.5z M1924.5,660.5l-86.6,77.4l-37,15.6
		c-38.2,16.1-78.7,24.3-120.2,24.3h-87c-20.2,0-39.8,5.9-56.6,17.1l-25,16.6l-46.1-73.2l89.4-55.9c22.4-14,48.3-21.5,74.8-21.5h32.7
		c7,0,13.9,1.7,19.9,5c13.7,7.4,34.5,16.3,55.8,16.3h76.9c7.2,0,13,5.8,13,13c0,6.3-4.5,11.7-10.8,12.8l-122.7,21
		c-3.9,0.7-6.5,4.4-5.9,8.3c0.7,3.9,4.4,6.5,8.3,5.9l122.7-21c13.2-2.3,22.7-13.6,22.7-26.9c0-0.4,0-0.8,0-1.2l70.2-48.1
		c3.6-2.5,8.3-2.1,11.5,0.9c1.9,1.8,3,4.2,2.9,6.8C1927.6,656.3,1926.5,658.7,1924.5,660.5z"/>
	<path class="st0" d="M1672.5,596.8c46.6,0,76.7-32.1,76.7-81.8c0-53-68.6-124.7-71.6-127.7c-2.7-2.8-7.6-2.8-10.3,0
		c-2.9,3-71.6,74.7-71.6,127.7C1595.8,564.7,1625.9,596.8,1672.5,596.8z M1672.5,402.8c15.8,17.6,62.4,72.7,62.4,112.2
		c0,42.2-23.3,67.5-62.4,67.5c-39.1,0-62.4-25.2-62.4-67.5C1610.1,475.5,1656.7,420.4,1672.5,402.8z"/>
	<path class="st0" d="M2044.8,852.3c0.1,0,0.2,0,0.3,0c4-0.2,7-3.5,6.8-7.5c-3.2-67.6,11.1-138.3,11.2-139c0.1-0.3,0.1-0.6,0.1-0.9
		c0.1-1,8.1-102.2,17.2-153.2c6.8-37.8,22.8-45.9,54.8-62.2c8.3-4.2,17.6-9,27.8-14.8c53.6-30.8,39.7-65.8,39.1-67.3
		c-1.5-3.7-5.7-5.4-9.4-3.8c-3.7,1.5-5.4,5.7-3.8,9.4c0.1,0.2,9.8,24.7-33,49.3c-9.9,5.7-19.1,10.4-27.2,14.5
		c-32.7,16.7-54.3,27.7-62.4,72.5c-9,50-16.8,146.8-17.4,154.2c-1.3,6.7-14.6,74.8-11.4,142.1C2037.8,849.3,2041,852.3,2044.8,852.3
		z"/>
	<path class="st0" d="M2116.4,872.7c-0.8,3.9,1.8,7.7,5.7,8.4c0.5,0.1,0.9,0.1,1.4,0.1c3.4,0,6.4-2.4,7-5.8
		c0.7-3.7,17.6-90.9,20.8-117.2c2.2-18.5-1.9-56.6-6.8-90.4c0,0,0-0.1,0-0.1c-4.3-29.3-9.1-55.3-10.9-62.5
		c-3.9-16.1-13-30.7-13.4-31.3c-2.1-3.4-6.5-4.4-9.9-2.3c-3.4,2.1-4.4,6.5-2.3,9.9c0.1,0.1,8.3,13.3,11.6,27.1
		c1.6,6.7,6.2,31.5,10.4,59.6l-34.2,120.3c-0.2,0.6-0.3,1.2-0.3,1.9l-0.8,54.7c-0.1,4,3.1,7.2,7.1,7.3c0,0,0.1,0,0.1,0
		c3.9,0,7.1-3.1,7.2-7.1l0.8-53.7l24.8-87.4c2.4,21.4,3.7,41.1,2.3,52.4C2133.9,782.3,2116.6,871.8,2116.4,872.7z"/>
	<path class="st0" d="M2311.1,474.6c10.2,5.9,19.6,10.6,27.8,14.8c32,16.3,48,24.5,54.8,62.2c9.2,51,17.2,152.2,17.2,153.2
		c0,0.3,0.1,0.6,0.1,0.9c0.1,0.7,14.4,71.4,11.2,139c-0.2,4,2.9,7.3,6.8,7.5c0.1,0,0.2,0,0.3,0c3.8,0,7-3,7.2-6.8
		c3.2-67.3-10.1-135.4-11.4-142.1c-0.6-7.4-8.4-104.2-17.4-154.2c-8-44.8-29.7-55.8-62.4-72.5c-8.1-4.1-17.3-8.8-27.2-14.5
		c-41.9-24.1-33.4-48.2-32.9-49.4c1.5-3.6-0.2-7.8-3.9-9.3c-3.6-1.5-7.9,0.2-9.4,3.8C2271.5,408.8,2257.5,443.8,2311.1,474.6z"/>
	<path class="st0" d="M2364.4,791.5l0.8,53.7c0.1,3.9,3.3,7.1,7.2,7.1c0,0,0.1,0,0.1,0c4-0.1,7.1-3.3,7.1-7.3l-0.8-54.7
		c0-0.7-0.1-1.3-0.3-2l-34.5-115c4.2-30.1,9-57.8,10.7-64.8c3.4-13.8,11.6-27,11.6-27.1c2.1-3.4,1.1-7.8-2.3-9.9
		c-3.4-2.1-7.8-1.1-9.9,2.3c-0.4,0.6-9.5,15.2-13.4,31.3c-1.8,7.5-6.9,36.4-11.2,67.7c0,0.1,0,0.2-0.1,0.4
		c-4.5,32.8-8.1,68.2-6.4,84.8c2.7,26.4,20.1,113.6,20.8,117.3c0.7,3.4,3.7,5.8,7,5.8c0.5,0,0.9,0,1.4-0.1c3.9-0.8,6.4-4.5,5.6-8.4
		c-0.2-0.9-18-90.3-20.6-116c-1-10,0.1-28,2.2-48L2364.4,791.5z"/>
	<path class="st0" d="M2297.9,825.3c0-20.7-26.7-36.9-60.7-36.9c-34,0-60.7,16.2-60.7,36.9c0,20.7,26.7,36.9,60.7,36.9
		C2271.2,862.2,2297.9,846,2297.9,825.3z M2237.2,847.9c-27.3,0-46.3-11.9-46.3-22.6c0-10.7,19-22.6,46.3-22.6
		c27.3,0,46.3,11.9,46.3,22.6C2283.5,836,2264.5,847.9,2237.2,847.9z"/>
	<path class="st0" d="M2237.2,761c28.3,0,50.5-13.7,50.5-31.3c0-17.5-22.2-31.3-50.5-31.3s-50.5,13.7-50.5,31.3
		C2186.7,747.3,2208.9,761,2237.2,761z M2237.2,712.8c20.7,0,36.1,8.9,36.1,16.9c0,8-15.5,16.9-36.1,16.9
		c-20.7,0-36.1-8.9-36.1-16.9C2201,721.7,2216.5,712.8,2237.2,712.8z"/>
	<path class="st0" d="M2237.2,666.8c24.3,0,42.7-11.6,42.7-26.9c0-15.4-18.4-26.9-42.7-26.9c-24.3,0-42.7,11.6-42.7,26.9
		C2194.5,655.2,2212.8,666.8,2237.2,666.8z M2237.2,627.3c17.3,0,28.4,7.5,28.4,12.6c0,5.1-11,12.6-28.4,12.6
		c-17.3,0-28.4-7.5-28.4-12.6C2208.8,634.7,2219.9,627.3,2237.2,627.3z"/>
	<path class="st0" d="M2237.2,578c21,0,36.9-10.2,36.9-23.7c0-13.5-15.8-23.7-36.9-23.7c-21,0-36.9,10.2-36.9,23.7
		C2200.3,567.8,2216.1,578,2237.2,578z M2237.2,545c14,0,22.5,6.1,22.5,9.3c0,3.3-8.5,9.3-22.5,9.3c-14,0-22.5-6.1-22.5-9.3
		C2214.6,551,2223.2,545,2237.2,545z"/>
	<path class="st0" d="M1882.2,1199.4l-59.8,40.9c-4.6-6.4-12.1-10.5-20.6-10.5h-61l21.1-129.5c9.9-1.2,18.8-7.7,22.6-17.7
		c5.3-14.2-2-30-16.2-35.3c-14.2-5.3-30,2-35.3,16.2c-5.1,13.7,1.5,28.9,14.8,34.7l-21.4,131.2c-15.2-1.6-29.9-8.4-37.8-12.7
		c-7.4-4-15.9-6.1-24.5-6.1h-0.5l4-134.1c2.7-0.7,5.4-1.8,7.9-3.3c6.2-3.9,10.5-10,12.2-17.2c1.6-7.2,0.4-14.5-3.5-20.7
		c-3.9-6.2-10-10.5-17.2-12.2c-14.8-3.4-29.5,5.9-32.9,20.7c-3.2,14.3,5.3,28.5,19.2,32.5l-4,134.4h-14.6c-14.1,0-28,2.1-41.3,6.2
		l-49.7-121.7c4.2-3.1,7.6-7.3,9.5-12.5c5.3-14.2-2-30-16.2-35.3c-14.2-5.3-30,2-35.3,16.2c-5.3,14.2,2,30,16.2,35.3
		c3.1,1.2,6.4,1.7,9.5,1.7c1,0,2-0.1,2.9-0.2l49.6,121.4c-6.9,2.9-13.6,6.4-20,10.4l-80.5,50.3l-4.1-6.5c-2-3.1-6-4.3-9.3-2.6
		l-33.6,17.2c-1.8,0.9-3.1,2.5-3.6,4.4c-0.5,1.9-0.3,3.9,0.7,5.7l61.9,104.4c1.3,2.2,3.7,3.5,6.2,3.5c1.1,0,2.2-0.3,3.3-0.8
		l36.3-18.8c1.8-0.9,3.1-2.5,3.6-4.5s0.2-4-0.8-5.7l-4.4-7l22.5-15c12.9-8.6,28-13.2,43.5-13.2h78.6c39.3,0,77.6-7.7,113.9-23
		l34.4-14.5c0.7-0.3,1.4-0.7,2-1.3l79-70.7c4.6-4.1,7.3-10,7.3-16.2c0.1-6.2-2.5-12.1-7-16.3
		C1902.1,1194.4,1890.8,1193.5,1882.2,1199.4z M1647.9,1046.9c1.4-6.1,6.8-10.2,12.8-10.2c1,0,1.9,0.1,2.9,0.3
		c3.4,0.8,6.3,2.8,8.2,5.8c1.9,3,2.5,6.5,1.7,9.9v0c-0.8,3.4-2.8,6.3-5.8,8.2c-3,1.9-6.5,2.5-9.9,1.7
		C1650.8,1061,1646.3,1054,1647.9,1046.9z M1522.6,1085.4c-6.8-2.5-10.3-10.1-7.7-16.9c2-5.3,7-8.6,12.3-8.6c1.5,0,3.1,0.3,4.6,0.8
		c6.8,2.5,10.3,10.1,7.7,16.9C1537,1084.4,1529.4,1087.9,1522.6,1085.4z M1500.1,1391.8l-54.6-92l21-10.7l57,90.6L1500.1,1391.8z
		 M1746.4,1068.5c2-5.3,7-8.6,12.3-8.6c1.5,0,3.1,0.3,4.6,0.8c6.8,2.5,10.3,10.1,7.7,16.9c-2.5,6.8-10.1,10.3-16.9,7.7
		C1747.4,1082.8,1743.9,1075.3,1746.4,1068.5z M1899.7,1223.2l-78.1,69.9l-33.3,14c-34.5,14.5-70.9,21.9-108.3,21.9h-78.6
		c-18.4,0-36.2,5.4-51.5,15.6l-22,14.6l-40.9-65l80.2-50.1c20.2-12.6,43.4-19.3,67.2-19.3h29.5c6.2,0,12.3,1.5,17.7,4.4
		c12.5,6.7,31.4,14.8,50.7,14.8h69.5c6.1,0,11,5,11,11c0,5.4-3.9,10-9.2,10.9l-110.9,19c-3.9,0.7-6.5,4.4-5.9,8.3
		c0.7,3.9,4.4,6.5,8.3,5.9l110.9-19c12.2-2.1,21.1-12.6,21.1-25c0-0.2,0-0.5,0-0.7l63.1-43.2c3-2,6.9-1.8,9.5,0.7
		c1.6,1.5,2.5,3.5,2.4,5.7C1902.3,1219.8,1901.4,1221.8,1899.7,1223.2z"/>
	<path class="st0" d="M2205.6,1246c0-12.5,1.3-26.2,2.8-40.8c3.3-33.5,7-71.3-5.1-105.7c2-8.7,6.6-38.2-16.6-57.9
		c-16.8-14.3-29.9-11.9-36.1-9.2c-6.4,2.8-11.5,8.2-14,14.7c-6.4,0.1-14.5,3-21.3,12.5c-1.7,2.4-5.5,6.2-9.9,10.6
		c-18.4,18.4-48.9,49-42.8,88.1c-2.1,6.9-7.2,30.4,4.5,64.5c2.7,7.7,6,19.3,9.8,33c-7.2,5.5-20.4,18.3-28.5,43.4
		c-10.2,31.7-38.1,89.8-38.4,90.4c-1.7,3.6-0.2,7.9,3.4,9.6c1,0.5,2.1,0.7,3.1,0.7c2.7,0,5.2-1.5,6.5-4.1
		c1.2-2.4,28.5-59.6,39.1-92.2c5.5-16.9,13.4-27,19.1-32.6c2,7.3,4.2,15,6.4,22.9c0,0,0,0.1,0,0.1c0.1,0.2,0.2,0.4,0.3,0.7
		c0.1,0.2,0.2,0.5,0.3,0.7c0,0,0,0.1,0.1,0.1c1.9,3.3,19,32.2,42.6,32.2c7.1,0,13.2-1.1,18.6-2c11.8-2.1,13.8-1.7,16.4,2.8
		c2.3,3.9,1.7,6.4,1.1,8c-2.1,5.5-10.1,10.9-21.5,14.5c-12.4,4-22.1,8-30,12.9c-0.1,0.1-0.2,0.1-0.3,0.2
		c-5.9,3.6-10.8,7.6-15.3,12.3c-3.5,3.6-6.7,8.3-10.1,13.2c-6.1,8.9-13.1,18.9-20.7,21.2c-3.8,1.1-6,5.1-4.9,8.9
		c0.9,3.1,3.8,5.2,6.9,5.2c0.7,0,1.3-0.1,2-0.3c12.5-3.6,21-15.9,28.5-26.8c3.1-4.5,6-8.7,8.7-11.5c1.7-1.8,3.5-3.5,5.5-5.1
		c6.9,17,13.2,28.5,19.2,35c10.2,11,24.1,16.9,38.3,16.9c5.9,0,11.9-1,17.6-3.1c18.2-6.7,29.7-22.6,30.6-42.5
		c1-21.3-3.5-48-7.8-73.9C2209.7,1290,2205.6,1265.8,2205.6,1246z M2207.1,1386.6c-0.7,14.2-8.4,25.1-21.2,29.7
		c-14.2,5.2-30.1,1.2-40.5-10c-5.1-5.5-10.9-16.6-17.4-33.2c5.9-3,13-5.8,21.8-8.6c15.9-5.1,26.8-13.2,30.5-23
		c2.6-6.6,1.8-13.7-2.1-20.4c-8-13.7-20.3-11.5-31.2-9.6c-5,0.9-10.2,1.8-16.1,1.8c-12.6,0-25.3-16.9-29.7-24.2
		c-2.2-7.8-4.3-15.4-6.3-22.6c-0.9-3.3-1.8-6.4-2.6-9.5c0,0,0,0,0-0.1c-4.5-16.1-8.4-29.8-11.5-38.8c-12-34.7-4.1-56.5-4-56.7
		c0.5-1.2,0.6-2.6,0.4-3.9c-6-32.5,21.8-60.5,38.5-77.2c5-5,9-9,11.4-12.4c2.9-4,5.6-5.6,7.8-6.2c0.2,11,2.8,32.2,18.4,47.8
		c1.4,1.4,3.2,2.1,5.1,2.1c1.8,0,3.7-0.7,5.1-2.1c2.8-2.8,2.8-7.3,0-10.1c-16.6-16.6-14-43.1-14-43.3c0-0.1,0-0.1,0-0.2
		c0-0.1,0-0.1,0-0.2c0.2-3.6,2.7-8.2,7-10c5.5-2.4,13,0.1,21.2,7c19.6,16.7,11.9,44.1,11.5,45.2c-0.4,1.5-0.4,3.1,0.1,4.6
		c11.8,31.9,8.2,68.9,5,101.5c-1.5,14.9-2.8,29-2.8,42.2c0,21,4.2,45.8,8.2,69.7C2203.7,1340.8,2208.1,1366.8,2207.1,1386.6z"/>
	<path class="st0" d="M2464.3,1330.5c-0.3-0.6-28.1-58.8-38.4-90.4c-8.1-25.1-21.3-37.9-28.5-43.4c3.8-13.7,7.2-25.3,9.8-33
		c11.8-34.1,6.6-57.6,4.5-64.5c6.1-39-24.4-69.6-42.8-88.1c-4.4-4.4-8.2-8.2-9.9-10.6c-6.8-9.5-14.9-12.4-21.3-12.5
		c-2.5-6.4-7.6-11.9-14-14.7c-6.3-2.7-19.3-5.1-36.1,9.2c-23.2,19.7-18.6,49.2-16.6,57.9c-12,34.4-8.3,72.3-5.1,105.7
		c1.4,14.6,2.8,28.3,2.8,40.8c0,19.8-4.1,44-8,67.3c-4.3,25.9-8.8,52.7-7.8,73.9c0.9,20,12.4,35.9,30.7,42.5
		c5.8,2.1,11.7,3.1,17.6,3.1c14.2,0,28.2-5.9,38.3-16.9c6-6.5,12.3-18,19.2-35c1.9,1.6,3.8,3.3,5.5,5.1c2.7,2.8,5.6,7,8.7,11.5
		c7.5,10.9,16,23.2,28.5,26.8c0.7,0.2,1.3,0.3,2,0.3c3.1,0,6-2,6.9-5.2c1.1-3.8-1.1-7.8-4.9-8.9c-7.6-2.2-14.6-12.3-20.7-21.2
		c-3.4-4.9-6.6-9.6-10.1-13.2c-4.4-4.7-9.4-8.7-15.3-12.3c-0.1-0.1-0.2-0.1-0.3-0.2c-7.9-4.8-17.6-8.9-30-12.9
		c-11.4-3.6-19.4-9-21.5-14.5c-0.6-1.6-1.2-4.2,1.1-8c2.6-4.5,4.6-4.8,16.4-2.8c5.4,0.9,11.4,2,18.6,2c23.6,0,40.7-28.9,42.6-32.2
		c0,0,0-0.1,0-0.1c0.1-0.2,0.2-0.5,0.3-0.7c0.1-0.2,0.2-0.4,0.3-0.6c0,0,0-0.1,0.1-0.1c2.2-7.9,4.3-15.5,6.4-22.9
		c5.8,5.6,13.6,15.7,19.1,32.6c10.5,32.6,37.9,89.8,39.1,92.2c1.2,2.6,3.8,4.1,6.5,4.1c1,0,2.1-0.2,3.1-0.7
		C2464.5,1338.4,2466,1334.1,2464.3,1330.5z M2343.5,1254.3c-5.9,0-11.1-0.9-16.1-1.8c-10.9-1.9-23.2-4-31.2,9.6
		c-3.9,6.7-4.7,13.8-2.1,20.4c3.7,9.8,14.6,17.9,30.5,23c8.8,2.8,15.8,5.5,21.8,8.6c-6.5,16.5-12.4,27.7-17.4,33.2
		c-10.4,11.3-26.3,15.2-40.5,10c-12.8-4.7-20.6-15.5-21.2-29.7c-0.9-19.7,3.4-45.7,7.7-70.9c4-23.9,8.2-48.7,8.2-69.7
		c0-13.2-1.4-27.3-2.8-42.2c-3.3-34.2-6.8-69.6,5-101.5c0.5-1.4,0.6-3.1,0.1-4.5c-0.3-1.2-8.1-28.6,11.5-45.2
		c8.1-6.9,15.6-9.3,21.2-7c4.4,1.9,6.8,6.5,7,10c0,0.1,0,0.1,0,0.2c0,0.1,0,0.2,0,0.2c0,0.3,2.7,26.6-14,43.3
		c-2.8,2.8-2.8,7.3,0,10.1c1.4,1.4,3.2,2.1,5.1,2.1c1.8,0,3.7-0.7,5.1-2.1c15.6-15.6,18.2-36.8,18.4-47.8c2.2,0.6,4.9,2.2,7.8,6.2
		c2.4,3.4,6.4,7.4,11.4,12.4c16.7,16.7,44.5,44.7,38.5,77.2c-0.2,1.3-0.1,2.6,0.4,3.9c0.1,0.2,8,22-4,56.7
		c-3.7,10.8-8.5,28.2-14.1,48.4c-2,7.2-4.1,14.8-6.3,22.6C2368.8,1237.4,2356.1,1254.3,2343.5,1254.3z"/>
</g>
</svg>
